<?xml version="1.0" encoding="utf-8"?>
<!-- Generator: Adobe Illustrator 26.4.1, SVG Export Plug-In . SVG Version: 6.00 Build 0)  -->
<svg version="1.1" id="图层_1" xmlns="http://www.w3.org/2000/svg" xmlns:xlink="http://www.w3.org/1999/xlink" x="0px" y="0px"
	 viewBox="0 0 1134 976" style="enable-background:new 0 0 1134 976;" xml:space="preserve">
<style type="text/css">
	.st0{fill:#111111;}
	.st1{font-family:'Tensentype-JiaLiDaYuanJ';}
	.st2{font-size:60px;}
	.st3{display:none;}
	
		.st4{display:inline;fill-rule:evenodd;clip-rule:evenodd;fill:#FFFFFF;stroke:#000000;stroke-width:4;stroke-linecap:round;stroke-linejoin:round;}
	.st5{display:inline;fill:#111111;}
	.st6{font-size:30px;}
	.st7{font-size:24px;}
	.st8{fill:#FF7E7E;}
	.st9{fill:#FFB57E;}
	.st10{fill:#FFE57E;}
	.st11{fill:#A8FFBE;}
	.st12{fill:#88AEFF;}
	.st13{fill:#FFFFFF;}
	.st14{fill:none;stroke:#000000;stroke-width:4;stroke-linecap:round;stroke-linejoin:round;}
	.st15{enable-background:new    ;}
	.st16{letter-spacing:2;}
	.st17{letter-spacing:3;}
	
		.st18{fill-rule:evenodd;clip-rule:evenodd;fill:#FFFFFF;stroke:#000000;stroke-width:4;stroke-linecap:round;stroke-linejoin:round;}
</style>
<g id="中国制霸">
	<text id="标题" transform="matrix(1 0 0 1 425 119)" class="st0 st1 st2">三界宙制霸</text>
	<g id="地区" class="st3">
		<path id="黑龙江" class="st4" d="M1100,33v158H894V33H1100z"/>
		<path id="甘肃" class="st4" d="M585,191v371H351V191H585z"/>
		<path id="吉林" class="st4" d="M894,191v85h206v-85H894z"/>
		<path id="内蒙古" class="st4" d="M894,33H738v158H499v227h227l168-108V33z"/>
		<path id="山东" class="st4" d="M779,446v92h139v-92H779z"/>
		<path id="河北" class="st4" d="M861,310H726v180h117v-95h18V310z"/>
		<path id="北京" class="st4" d="M763,336h80v52h-80V336z"/>
		<path id="天津" class="st4" d="M763,388h80v43h-80V388z"/>
		<path id="西藏" class="st4" d="M389,770H35V466h354V770z"/>
		<path id="新疆" class="st4" d="M35,466V87h316v379H35z"/>
		<path id="河南" class="st4" d="M779,490H654v117h125V490z"/>
		<path id="安徽" class="st4" d="M852,538h-73v138h73V538z"/>
		<path id="山西" class="st4" d="M654,418v108h72V418H654z"/>
		<path id="湖北" class="st4" d="M779,688v-81H654v81H779z"/>
		<path id="青海" class="st4" d="M442,626V395H228v231H442z"/>
		<path id="辽宁" class="st4" d="M861,276v119h154V276H861z"/>
		<path id="广东" class="st4" d="M823,788H679v81h144V788z"/>
		<path id="江苏" class="st4" d="M899,538v87h-62v-87H899z"/>
		<path id="江西" class="st4" d="M852,806V676H749v130H852z"/>
		<path id="浙江" class="st4" d="M852,625l74,1v107h-74V625z"/>
		<path id="福建" class="st4" d="M823,733v107h73V733H823z"/>
		<path id="上海" class="st4" d="M882,602h72v47h-72V602z"/>
		<path id="陕西" class="st4" d="M585,653h69V418h-69V653z"/>
		<path id="湖南" class="st4" d="M654,688h95v100h-95V688z"/>
		<path id="广西" class="st4" d="M679,788H537v81h142V788z"/>
		<path id="香港" class="st4" d="M758,856h42v33h-42V856z"/>
		<path id="澳门" class="st4" d="M701,856h45v33h-45V856z"/>
		<path id="贵州" class="st4" d="M654,709H537v79h117V709z"/>
		<path id="重庆" class="st4" d="M565,653h89v56h-89V653z"/>
		<path id="四川" class="st4" d="M565,737v-84h20v-91H389v175H565z"/>
		<path id="云南" class="st4" d="M537,737H389v115h148V737z"/>
		<path id="宁夏" class="st4" d="M585,418h-86v96h86V418z"/>
		<path id="台湾" class="st4" d="M918,788h45v87h-45V788z"/>
		<path id="海南" class="st4" d="M615,897h78v46h-78V897z"/>
	</g>
	<g id="地名" class="st3">
		<text transform="matrix(1 0 0 1 659 266)" class="st5 st1 st6">内蒙古</text>
		<text transform="matrix(1 0 0 1 951 123)" class="st5 st1 st6">黑龙江</text>
		<text transform="matrix(1 0 0 1 966 242)" class="st5 st1 st6">吉林</text>
		<text transform="matrix(1 0 0 1 906 347)" class="st5 st1 st6">辽宁</text>
		<text transform="matrix(1 0 0 1 773 371)" class="st5 st1 st6">北京</text>
		<text transform="matrix(1 0 0 1 773 419)" class="st5 st1 st6">天津</text>
		<text transform="matrix(1 0 0 1 751 469)" class="st5 st1 st6">河北</text>
		<text transform="matrix(1 0 0 1 861 488)" class="st5 st1 st6">山</text>
		<text transform="matrix(1 0 0 1 861 518)" class="st5 st1 st6">东</text>
		<text transform="matrix(1 0 0 1 685 579)" class="st5 st1 st6">河南</text>
		<text transform="matrix(1 0 0 1 684 658)" class="st5 st1 st6">湖北</text>
		<text transform="matrix(1 0 0 1 684 733)" class="st5 st1 st6">湖</text>
		<text transform="matrix(1 0 0 1 684 763)" class="st5 st1 st6">南</text>
		<text transform="matrix(1 0 0 1 846 575)" class="st5 st1 st6">江</text>
		<text transform="matrix(1 0 0 1 846 605)" class="st5 st1 st6">苏</text>
		<text transform="matrix(1 0 0 1 888 635)" class="st5 st1 st6">上海</text>
		<text transform="matrix(1 0 0 1 872 685)" class="st5 st1 st6">浙</text>
		<text transform="matrix(1 0 0 1 872 715)" class="st5 st1 st6">江</text>
		<text transform="matrix(1 0 0 1 844 783)" class="st5 st1 st6">福</text>
		<text transform="matrix(1 0 0 1 844 813)" class="st5 st1 st6">建</text>
		<text transform="matrix(1 0 0 1 925 826)" class="st5 st1 st6">台</text>
		<text transform="matrix(1 0 0 1 925 856)" class="st5 st1 st6">湾</text>
		<text transform="matrix(1 0 0 1 625 930)" class="st5 st1 st6">海南</text>
		<text transform="matrix(1 0 0 1 721 842)" class="st5 st1 st6">广东</text>
		<text transform="matrix(1 0 0 1 772 736)" class="st5 st1 st6">江</text>
		<text transform="matrix(1 0 0 1 772 766)" class="st5 st1 st6">西</text>
		<text transform="matrix(1 0 0 1 793 603)" class="st5 st1 st6">安</text>
		<text transform="matrix(1 0 0 1 793 633)" class="st5 st1 st6">徽</text>
		<text transform="matrix(1 0 0 1 674 466)" class="st5 st1 st6">山</text>
		<text transform="matrix(1 0 0 1 674 496)" class="st5 st1 st6">西</text>
		<text transform="matrix(1 0 0 1 604 536)" class="st5 st1 st6">陕</text>
		<text transform="matrix(1 0 0 1 604 566)" class="st5 st1 st6">西</text>
		<text transform="matrix(1 0 0 1 527 460)" class="st5 st1 st6">宁</text>
		<text transform="matrix(1 0 0 1 527 490)" class="st5 st1 st6">夏</text>
		<text transform="matrix(1 0 0 1 411 304)" class="st5 st1 st6">甘</text>
		<text transform="matrix(1 0 0 1 411 334)" class="st5 st1 st6">肃</text>
		<text transform="matrix(1 0 0 1 301 520)" class="st5 st1 st6">青海</text>
		<text transform="matrix(1 0 0 1 453 660)" class="st5 st1 st6">四川</text>
		<text transform="matrix(1 0 0 1 432 805)" class="st5 st1 st6">云南</text>
		<text transform="matrix(1 0 0 1 579 839)" class="st5 st1 st6">广西</text>
		<text transform="matrix(1 0 0 1 566 759)" class="st5 st1 st6">贵州</text>
		<text transform="matrix(1 0 0 1 579 691)" class="st5 st1 st6">重庆</text>
		<text transform="matrix(1 0 0 1 104 639)" class="st5 st1 st6">西藏</text>
		<text transform="matrix(1 0 0 1 163 288)" class="st5 st1 st6">新疆</text>
		<text transform="matrix(1 0 0 1 767 880)" class="st5 st1 st7">港</text>
		<text transform="matrix(1 0 0 1 711 880)" class="st5 st1 st7">澳</text>
	</g>
	<a>
		<text transform="matrix(1 0 0 1 37 937)" class="st0 st1 st6">三界宙旅者·十八神瑛团</text>
	</a>
	<text id="分数" transform="matrix(1 0 0 1 35 883)" class="st0 st1 st2">分数</text>
	<g id="等级">
		<path class="st8" d="M983,524h120v50H983V524z"/>
		<path class="st9" d="M983,574h120v50H983V574z"/>
		<path class="st10" d="M983,624h120v50H983V624z"/>
		<path class="st11" d="M983,674h120v50H983V674z"/>
		<path class="st12" d="M983,724h120v50H983V724z"/>
		<path class="st13" d="M983,774h120v50H983V774z"/>
		<path class="st14" d="M983,522h120v304H983V522z"/>
		<text transform="matrix(1 0 0 1 1000 558)" class="st0 st1 st6">精研５</text>
		<text transform="matrix(1 0 0 1 1005 609)" class="st0 st1 st6">N刷 4</text>
		<text transform="matrix(1 0 0 1 1000 659)" class="st0 st1 st6">通读３</text>
		<text transform="matrix(1 0 0 1 1000 709)" class="st0 st1 st6">看过２</text>
		<text transform="matrix(1 0 0 1 1000 759)" class="st0 st1 st6">耳闻１</text>
		<text transform="matrix(1 0 0 1 998 809)" class="st0 st1 st6">没印象</text>
	</g>
</g>
<g id="三界宙制霸">
	<g id="框架">
		<g id="迷雾之子_00000103958381127574617540000003356863867247338660_">
			<g id="迷雾之子时代2">
				<path id="贾克" class="st18" d="M471.4,542.4v44.7h206v-44.7H471.4z"/>
				<path id="失落金属" class="st18" d="M541.5,456.8v85h206v-85H541.5z"/>
				<path id="悲悼护腕" class="st18" d="M541.5,371.8v85h206v-85H541.5z"/>
				<path id="旧影森森_00000144334773069669796050000011551227489534898847_" class="st18" d="M541.5,286.8v85h206v-85H541.5z"
					/>
				<path id="执法镕金_00000137107835846056715050000014138451810035720863_" class="st18" d="M541.5,201.8v85h206v-85
					L541.5,201.8L541.5,201.8z"/>
			</g>
			<g id="迷雾之子时代1">
				<path id="秘史_00000113313863420130636440000014701312611463116982_" class="st18" d="M747.5,456.3v66.3h206v-66.3H747.5z"/>
				<path id="永世英雄_00000020394068133647844080000004280284570544380339_" class="st18" d="M747.5,371.8v85h206v-85H747.5z"
					/>
				<path id="升华之井_00000163758417625782698260000000470695271691590793_" class="st18" d="M747.5,286.8v85h206v-85H747.5z"
					/>
				<path id="最后帝国_00000168815709318237820460000016315051851406726051_" class="st18" d="M747.5,201.8v85h206v-85
					L747.5,201.8L747.5,201.8z"/>
				<path id="第十一种金属_00000160891975677478179740000010160644339448222392_" class="st18" d="M814.4,157v44.7h206V157
					H814.4z"/>
			</g>
		</g>
		<g id="飓光志">
			<path id="纷争之韵" class="st18" d="M212,535.3v85h206v-85H212z"/>
			<path id="渡誓" class="st18" d="M212,450.3v85h206v-85H212z"/>
			<path id="光辉真言" class="st18" d="M212,365.3v85h206v-85H212z"/>
			<path id="王者之路" class="st18" d="M212,280.3v85h206v-85H212z"/>
			<path id="晨瑛" class="st18" d="M124.1,502.3v64.9H236v-64.9L124.1,502.3L124.1,502.3z"/>
			<path id="缘舞" class="st18" d="M395.3,417.8v64.9h111.9v-64.9H395.3z"/>
		</g>
		<path id="地狱森林" class="st18" d="M38.1,148.3v66.3h294.5v-66.3H38.1z"/>
		<path id="黄昏第六子" class="st18" d="M767.9,652.9v66.3h184v-66.3H767.9z"/>
		<path id="白沙" class="st18" d="M38.1,342.3v85H166v-85H38.1z"/>
		<path id="破战者" class="st18" d="M509.7,699.5v85h206v-85H509.7z"/>
		<g id="伊岚翠_00000089546853448055160630000012223998480341564080_">
			<path id="伊岚翠" class="st18" d="M211.7,675v85h206v-85H211.7z"/>
			<path id="伊岚翠的希望" class="st18" d="M48.6,695.1v44.7H240v-44.7H48.6z"/>
			<path id="皇帝魂" class="st18" d="M323,760v66.3h138.7V760H323z"/>
		</g>
	</g>
	<g id="文字">
		<g id="迷雾之子">
			<g id="迷雾之子时代2_00000163756282003595992030000012431025551420208526_">
				<text transform="matrix(1 0 0 1 502.8993 572.4503)" class="st0 st1 st7">熔金术师贾克</text>
				
					<text id="失落金属_00000106842819519134668600000001503964259338055587_" transform="matrix(1 0 0 1 584.0635 510.7705)" class="st0 st1 st6">失落金属</text>
				
					<text id="悲悼护腕_00000122718211341291308210000017214979949400358798_" transform="matrix(1 0 0 1 584.3121 423.3042)" class="st0 st1 st6">悲悼护腕</text>
				<text id="旧影森森" transform="matrix(1 0 0 1 584.3127 341.142)" class="st0 st1 st6">旧影森森</text>
				<text transform="matrix(1 0 0 1 583.1552 257.2237)" class="st0 st1 st6">执法熔金</text>
			</g>
			<g id="迷雾之子时代1_00000152261877762924196520000001280718509167884173_">
				<text transform="matrix(1 0 0 1 773.551 499.2676)" class="st0 st1 st7">迷雾之子: 秘史</text>
				
					<text id="永世英雄_00000119836817898409693870000010201861873008946078_" transform="matrix(1 0 0 1 790.312 423.3042)" class="st0 st1 st6">永世英雄</text>
				
					<text id="升华之井_00000098917211713650819500000008626530121451590819_" transform="matrix(1 0 0 1 790.3127 341.142)" class="st0 st1 st6">升华之井</text>
				<text transform="matrix(1 0 0 1 789.1553 257.2237)" class="st0 st1 st6">最后帝国</text>
				<text transform="matrix(1 0 0 1 842.9154 186.8073)" class="st0 st1 st7">第十一种金属</text>
			</g>
		</g>
		<g id="飓光志_00000181054386898557616660000009608068363454870912_">
			
				<text id="纷争之韵_00000176026959994685435200000007875386778568188544_" transform="matrix(1 0 0 1 258.1679 588.8768)" class="st0 st1 st6">纷争之韵</text>
			
				<text id="渡誓_00000036209503827109585200000009783159493827912880_" transform="matrix(1 0 0 1 287.8783 502.4105)" class="st0 st1 st6">渡誓</text>
			
				<text id="光辉真言_00000146487512991710488930000000916033383752507021_" transform="matrix(1 0 0 1 258.4172 419.2483)" class="st0 st1 st6">光辉真言</text>
			<text transform="matrix(1 0 0 1 257.2596 335.33)" class="st0 st1 st6">王者之路</text>
			
				<text id="晨瑛_00000101095938708560107180000004901007195458921645_" transform="matrix(1 0 0 1 150.5794 543.3971)" class="st0 st1 st6">晨瑛</text>
			
				<text id="缘舞_00000035530404708997175270000006045801383100853678_" transform="matrix(1 0 0 1 421.1864 459.337)" class="st0 st1 st6">缘舞</text>
		</g>
		
			<text id="地狱森林_00000179616194441694276050000001879554260769426107_" transform="matrix(1 0 0 1 78.0015 188.8073)" class="st0 st1 st7">地狱森林的寂静幽影</text>
		
			<text id="黄昏第六子_00000072275382986727818010000013205273653994216889_" transform="matrix(1 0 0 1 800.1367 696.0002)" class="st0 st1 st7">黄昏第六子</text>
		
			<text id="白沙_00000150083948767736760970000006741744210746360747_" transform="matrix(1 0 0 1 72.0547 395.8245)" class="st0 st1 st6">白沙</text>
		
			<text id="破战者_00000003825247266407704690000017130585159279345588_" transform="matrix(1 0 0 1 569.2501 752.2004)" class="st0 st1 st6">破战者</text>
		<g id="伊岚翠_00000023283428632459477250000009637736109038816156_">
			
				<text id="伊岚翠_00000024689701979849297680000005366152305768998323_" transform="matrix(1 0 0 1 268.0001 727.0005)" class="st0 st1 st6">伊岚翠</text>
			<text transform="matrix(1 0 0 1 71.1273 725.0005)" class="st0 st1 st7">伊岚翠的希望</text>
			
				<text id="皇帝魂_00000019666992758888102260000000391338214963382194_" transform="matrix(1 0 0 1 358.6659 802.6237)" class="st0 st1 st7">皇帝魂</text>
		</g>
	</g>
</g>
</svg>
