<?xml version="1.0" encoding="utf-8"?>
<svg xmlns="http://www.w3.org/2000/svg" viewBox="0 0 1134 976">
<style></style>
<style>
text{
	font-family: 'Tensentype-JiaLiDaYuanJF',sans-serif;
	fill:#111;
	font-size:24px;
}
#标题,
#分数{font-size:60px;}
.fs24{font-size:24px;}
.fs30{font-size:30px;}
#地区 path,
.边框{
    fill-rule:evenodd;
    clip-rule:evenodd;
    stroke:#000;
    stroke-width:4;
    stroke-linecap:round;
    stroke-linejoin:round;
}
#地区 path{
    fill:#FFF;
    cursor: pointer;
    pointer-events: auto;
}
.边框{fill:none;}
#地区 path[level="5"]{fill:#FF7E7E;}
#地区 path[level="4"]{fill:#FFB57E;}
#地区 path[level="3"]{fill:#FFE57E;}
#地区 path[level="2"]{fill:#A8FFBE;}
#地区 path[level="1"]{fill:#88AEFF;}
.st18{fill-rule:evenodd;clip-rule:evenodd;fill:#FFFFFF;stroke:#000000;stroke-width:4;stroke-linecap:round;stroke-linejoin:round;}
</style>
<text x="425" y="119" id="标题">三界宙制霸</text>
<g id="地区">
	<path id="秘史" class="st18" d="M747.5,456.3v66.3h206v-66.3H747.5z"/>
	<path id="永世英雄" class="st18" d="M747.5,371.8v85h206v-85H747.5z"/>
	<path id="升华之井" class="st18" d="M747.5,286.8v85h206v-85H747.5z"/>
	<path id="最后帝国" class="st18" d="M747.5,201.8v85h206v-85L747.5,201.8L747.5,201.8z"/>
	<path id="第十一种金属" class="st18" d="M814.4,157v44.7h206V157H814.4z"/>

	<path id="贾克" class="st18" d="M471.4,542.4v44.7h206v-44.7H471.4z"/>
	<path id="失落金属" class="st18" d="M541.5,456.8v85h206v-85H541.5z"/>
	<path id="悲悼护腕" class="st18" d="M541.5,371.8v85h206v-85H541.5z"/>
	<path id="旧影森森" class="st18" d="M541.5,286.8v85h206v-85H541.5z"/>
	<path id="执法熔金" class="st18" d="M541.5,201.8v85h206v-85L541.5,201.8L541.5,201.8z"/>

	<path id="纷争之韵" class="st18" d="M212,535.3v85h206v-85H212z"/>
	<path id="渡誓" class="st18" d="M212,450.3v85h206v-85H212z"/>
	<path id="光辉真言" class="st18" d="M212,365.3v85h206v-85H212z"/>
	<path id="王者之路" class="st18" d="M212,280.3v85h206v-85H212z"/>
	<path id="晨瑛" class="st18" d="M124.1,502.3v64.9H236v-64.9L124.1,502.3L124.1,502.3z"/>
	<path id="缘舞" class="st18" d="M395.3,417.8v64.9h111.9v-64.9H395.3z"/>

	<path id="地狱森林" class="st18" d="M38.1,148.3v66.3h294.5v-66.3H38.1z"/>
	<path id="黄昏第六子" class="st18" d="M767.9,652.9v66.3h184v-66.3H767.9z"/>
	<path id="白沙" class="st18" d="M38.1,342.3v85H166v-85H38.1z"/>
	<path id="破战者" class="st18" d="M509.7,699.5v85h206v-85H509.7z"/>

	<path id="伊岚翠" class="st18" d="M211.7,675v85h206v-85H211.7z"/>
	<path id="伊岚翠的希望" class="st18" d="M48.6,695.1v44.7H240v-44.7H48.6z"/>
	<path id="皇帝魂" class="st18" d="M323,760v66.3h138.7V760H323z"/>
</g>
<g id="地名">
	<text transform="matrix(1 0 0 1 773.551 499.2676)" class="fs24">迷雾之子: 秘史</text>
	<text transform="matrix(1 0 0 1 790.312 423.3042)" class="fs30">永世英雄</text>
	<text transform="matrix(1 0 0 1 790.3127 341.142)" class="fs30">升华之井</text>
	<text transform="matrix(1 0 0 1 789.1553 257.2237)" class="fs30">最后帝国</text>
	<text transform="matrix(1 0 0 1 842.9154 186.8073)" class="fs24">第十一种金属</text>

	<text transform="matrix(1 0 0 1 502.8993 572.4503)" class="fs24">熔金术师贾克</text>
	<text transform="matrix(1 0 0 1 584.0635 510.7705)" class="fs30">失落金属</text>
	<text transform="matrix(1 0 0 1 584.3121 423.3042)" class="fs30">悲悼护腕</text>
	<text transform="matrix(1 0 0 1 584.3127 341.142)" class="fs30">旧影森森</text>
	<text transform="matrix(1 0 0 1 583.1552 257.2237)" class="fs30">执法熔金</text>

	<text transform="matrix(1 0 0 1 258.1679 588.8768)" class="fs30">纷争之韵</text>
	<text transform="matrix(1 0 0 1 287.8783 502.4105)" class="fs30">渡誓</text>
	<text transform="matrix(1 0 0 1 258.4172 419.2483)" class="fs30">光辉真言</text>
	<text transform="matrix(1 0 0 1 257.2596 335.33)" class="fs30">王者之路</text>
	<text transform="matrix(1 0 0 1 150.5794 543.3971)" class="fs30">晨瑛</text>
	<text transform="matrix(1 0 0 1 421.1864 459.337)" class="fs30">缘舞</text>

	<text transform="matrix(1 0 0 1 78.0015 188.8073)" class="fs24">地狱森林的寂静幽影</text>
	<text transform="matrix(1 0 0 1 800.1367 696.0002)" class="fs24">黄昏第六子</text>
	<text transform="matrix(1 0 0 1 72.0547 395.8245)" class="fs30">白沙</text>
	<text transform="matrix(1 0 0 1 569.2501 752.2004)" class="fs30">破战者</text>

	<text transform="matrix(1 0 0 1 268.0001 727.0005)" class="fs30">伊岚翠</text>
	<text transform="matrix(1 0 0 1 71.1273 725.0005)" class="fs24">伊岚翠的希望</text>
	<text transform="matrix(1 0 0 1 358.6659 802.6237)" class="fs24">皇帝魂</text>
</g>
<a href="https://coppermind.huijiwiki.com/wiki/%E4%B8%89%E7%95%8C%E5%AE%99%E6%97%85%E8%80%85" target="_blank">
	<text transform="matrix(1 0 0 1 37 937)" class="fs30">三界宙旅者·十八神瑛团</text>
</a>
<text id="分数" x="35" y="883">分数</text>
<g id="等级">
	<path fill="#FF7E7E" d="M983,524h120v50H983V524z"/>
	<path fill="#FFB57E" d="M983,574h120v50H983V574z"/>
	<path fill="#FFE57E" d="M983,624h120v50H983V624z"/>
	<path fill="#A8FFBE" d="M983,674h120v50H983V674z"/>
	<path fill="#88AEFF" d="M983,724h120v50H983V724z"/>
	<path fill="#FFF" d="M983,774h120v50H983V774z"/>
	<path class="边框" d="M983,522h120v304H983V522z"/>
	<text transform="matrix(1 0 0 1 1000 558)" class="fs30">精研５</text>
	<text transform="matrix(1 0 0 1 1005 609)" class="fs30">N刷 4</text>
	<text transform="matrix(1 0 0 1 1000 659)" class="fs30">通读３</text>
	<text transform="matrix(1 0 0 1 1000 709)" class="fs30">看过２</text>
	<text transform="matrix(1 0 0 1 1000 759)" class="fs30">耳闻１</text>
	<text transform="matrix(1 0 0 1 998 809)" class="fs30">没印象</text>
</g>
</svg>